<?xml version="1.0" encoding="utf-8"?>
<!-- Generator: Adobe Illustrator 25.2.1, SVG Export Plug-In . SVG Version: 6.00 Build 0)  -->
<svg version="1.1" id="레이어_1" xmlns="http://www.w3.org/2000/svg" xmlns:xlink="http://www.w3.org/1999/xlink" x="0px"
	 y="0px" viewBox="0 0 12.21 18" style="enable-background:new 0 0 12.21 18;" xml:space="preserve">
<style type="text/css">
	.st0{fill:#555656;}
</style>
<symbol  id="apple" viewBox="-6.03 -7.43 12.07 14.85">
	<path class="st0" d="M-3.04,7.14c-0.25-0.16-0.51-0.39-0.77-0.71c-0.18-0.21-0.4-0.51-0.66-0.9c-0.45-0.65-0.82-1.4-1.1-2.25
		C-5.88,2.35-6.03,1.47-6.03,0.6c0-0.97,0.21-1.82,0.62-2.53c0.32-0.57,0.75-1.02,1.3-1.35C-3.56-3.62-2.98-3.8-2.35-3.8
		c0.22,0,0.45,0.03,0.7,0.09c0.18,0.05,0.4,0.13,0.66,0.23c0.34,0.13,0.53,0.21,0.59,0.23c0.2,0.07,0.37,0.1,0.5,0.1
		c0.1,0,0.24-0.03,0.4-0.08C0.59-3.27,0.76-3.33,1-3.43c0.24-0.09,0.43-0.16,0.58-0.22C1.81-3.72,2.03-3.78,2.23-3.8
		c0.24-0.04,0.48-0.05,0.71-0.03c0.44,0.03,0.84,0.12,1.2,0.26c0.63,0.25,1.14,0.65,1.52,1.21C5.5-2.26,5.34-2.15,5.21-2.02
		C4.89-1.74,4.64-1.43,4.45-1.09c-0.27,0.48-0.4,1.01-0.4,1.56c0.01,0.67,0.18,1.26,0.52,1.77C4.8,2.6,5.13,2.92,5.51,3.18
		C5.7,3.31,5.87,3.4,6.03,3.46C5.95,3.72,5.86,3.95,5.78,4.14C5.56,4.66,5.3,5.13,5.01,5.57C4.74,5.97,4.53,6.26,4.37,6.44
		c-0.25,0.3-0.49,0.52-0.73,0.68C3.36,7.31,3.06,7.4,2.74,7.4C2.52,7.41,2.31,7.38,2.1,7.32c-0.12-0.04-0.3-0.1-0.53-0.2
		c-0.23-0.1-0.42-0.17-0.56-0.21C0.78,6.85,0.54,6.82,0.29,6.82c-0.25,0-0.49,0.03-0.72,0.09c-0.16,0.04-0.34,0.11-0.56,0.2
		c-0.26,0.11-0.43,0.18-0.53,0.21c-0.2,0.06-0.41,0.1-0.61,0.11C-2.44,7.43-2.74,7.34-3.04,7.14z M1.2-4.28
		c-0.42,0.21-0.82,0.3-1.22,0.27c-0.06-0.4,0-0.81,0.17-1.26C0.3-5.64,0.5-6,0.77-6.31c0.27-0.31,0.6-0.57,1.01-0.78
		s0.8-0.32,1.17-0.34C3-7.01,2.95-6.59,2.8-6.14c-0.14,0.4-0.35,0.76-0.62,1.09C1.91-4.73,1.58-4.47,1.2-4.28z"/>
</symbol>
<use xlink:href="#apple"  width="12.07" height="14.85" x="-6.03" y="-7.43" transform="matrix(1 0 0 1 6.1059 9)" style="overflow:visible;"/>
</svg>
