<?xml version="1.0" encoding="utf-8"?>
<!-- Generator: Adobe Illustrator 25.2.1, SVG Export Plug-In . SVG Version: 6.00 Build 0)  -->
<svg version="1.1" xmlns="http://www.w3.org/2000/svg" xmlns:xlink="http://www.w3.org/1999/xlink" x="0px" y="0px"
	 viewBox="0 0 17 44" style="enable-background:new 0 0 17 44;" xml:space="preserve">
<style type="text/css">
	.st0{display:none;}
	.st1{display:inline;fill:#474B9D;}
	.st2{fill:#F5F5F7;}
</style>
<g id="레이어_2" class="st0">
	<rect x="0" class="st1" width="17" height="44"/>
</g>
<g id="레이어_1">
	<path id="bag" class="st2" d="M44.99,15.94h-1.79c-0.2-2.33-2.24-4.05-4.57-3.86c-2.05,0.17-3.68,1.8-3.86,3.86h-1.79
		c-1.38,0-2.5,1.12-2.5,2.5v11c0,1.38,1.12,2.5,2.5,2.5h12c1.38,0,2.5-1.12,2.5-2.5v-11C47.49,17.06,46.37,15.94,44.99,15.94z
		 M38.99,13.06c1.64,0.01,3.03,1.24,3.21,2.88h-6.42C35.97,14.3,37.35,13.07,38.99,13.06z M46.49,29.44c0,0.83-0.67,1.5-1.5,1.5l0,0
		h-12c-0.83,0-1.5-0.67-1.5-1.5l0,0v-11c0-0.83,0.67-1.5,1.5-1.5h12c0.83,0,1.5,0.67,1.5,1.5V29.44z"/>
	<path class="st2" d="M8.62,18.07c-0.73,0-1.86-0.83-3.05-0.8C4,17.29,2.56,18.18,1.75,19.59c-1.63,2.83-0.42,7.01,1.17,9.31
		c0.78,1.12,1.7,2.38,2.92,2.34c1.17-0.05,1.61-0.76,3.03-0.76c1.41,0,1.81,0.76,3.05,0.73c1.26-0.02,2.06-1.14,2.83-2.27
		c0.89-1.3,1.26-2.56,1.28-2.63c-0.03-0.01-2.45-0.94-2.48-3.74c-0.02-2.34,1.91-3.46,2-3.51c-1.1-1.61-2.79-1.79-3.38-1.83
		C10.63,17.11,9.34,18.07,8.62,18.07z M11.22,15.71c0.65-0.78,1.08-1.87,0.96-2.95c-0.93,0.04-2.05,0.62-2.72,1.4
		c-0.6,0.69-1.12,1.8-0.98,2.86C9.51,17.1,10.57,16.49,11.22,15.71"/>
</g>
</svg>
