<?xml version="1.0" encoding="utf-8"?>
<!-- Generator: Adobe Illustrator 25.2.1, SVG Export Plug-In . SVG Version: 6.00 Build 0)  -->
<svg version="1.1" xmlns="http://www.w3.org/2000/svg" xmlns:xlink="http://www.w3.org/1999/xlink" x="0px" y="0px"
	 viewBox="0 0 17 44" style="enable-background:new 0 0 17 44;" xml:space="preserve">
<style type="text/css">
	.st0{fill:#F5F5F7;}
</style>
<g id="레이어_2">
</g>
<g id="레이어_1">
	<path id="bag_2_" class="st0" d="M14.5,15.94h-1.79c-0.2-2.33-2.24-4.05-4.57-3.86c-2.05,0.17-3.68,1.8-3.86,3.86H2.5
		c-1.38,0-2.5,1.12-2.5,2.5v11c0,1.38,1.12,2.5,2.5,2.5h12c1.38,0,2.5-1.12,2.5-2.5v-11C17,17.06,15.88,15.94,14.5,15.94z
		 M8.5,13.06c1.64,0.01,3.03,1.24,3.21,2.88H5.29C5.47,14.3,6.86,13.07,8.5,13.06z M16,29.44c0,0.83-0.67,1.5-1.5,1.5l0,0h-12
		c-0.83,0-1.5-0.67-1.5-1.5l0,0v-11c0-0.83,0.67-1.5,1.5-1.5h12c0.83,0,1.5,0.67,1.5,1.5V29.44z"/>
</g>
</svg>
