<?xml version="1.0" encoding="utf-8"?>
<!-- Generator: Adobe Illustrator 25.2.1, SVG Export Plug-In . SVG Version: 6.00 Build 0)  -->
<svg version="1.1" xmlns="http://www.w3.org/2000/svg" xmlns:xlink="http://www.w3.org/1999/xlink" x="0px" y="0px"
	 viewBox="0 0 17 44" style="enable-background:new 0 0 17 44;" xml:space="preserve">
<style type="text/css">
	.st0{display:none;}
	.st1{display:inline;fill:#474B9D;}
	.st2{fill:#F5F5F7;}
</style>
<g id="레이어_2" class="st0">
	<rect class="st1" width="17" height="44"/>
</g>
<g id="레이어_1">
	<path class="st2" d="M16.66,29.41l-4.58-4.58c2.43-2.84,2.09-7.11-0.75-9.54s-7.11-2.09-9.54,0.75s-2.09,7.11,0.75,9.54
		c2.53,2.16,6.26,2.16,8.79-0.01l4.58,4.58c0.2,0.21,0.53,0.23,0.74,0.03c0.21-0.2,0.23-0.53,0.03-0.74
		C16.68,29.44,16.67,29.42,16.66,29.41L16.66,29.41z M1.26,20.45c0-3.14,2.56-5.69,5.7-5.68c3.14,0,5.69,2.56,5.68,5.7
		c0,3.14-2.55,5.68-5.69,5.68C3.81,26.14,1.27,23.59,1.26,20.45z"/>
</g>
</svg>
