<?xml version="1.0" encoding="utf-8"?>
<!-- Generator: Adobe Illustrator 25.2.1, SVG Export Plug-In . SVG Version: 6.00 Build 0)  -->
<svg version="1.1" id="레이어_1" xmlns="http://www.w3.org/2000/svg" xmlns:xlink="http://www.w3.org/1999/xlink" x="0px"
	 y="0px" viewBox="0 0 27 54" style="enable-background:new 0 0 27 54;" xml:space="preserve">
<style type="text/css">
	.st0{fill:none;}
	.st1{fill:#F5F5F7;}
</style>
<path class="st0" d="M0,0h27v54H0V0z"/>
<g>
	<path class="st1" d="M20.5,48.7c-0.1,0.7-0.7,1.3-1.4,1.3h-1.6c-0.8-0.1-1.4-0.7-1.5-1.5V34c1.3,0.9,2.9,1.3,4.4,1.2L20.5,48.7z"/>
	<path class="st1" d="M14.4,28.3c0,3.2,3.1,6,6.7,5.8c2.2-0.1,4.2-1.2,5.3-3.1c0.5-0.8,0.5-1,0.5-2.9c0-1.4,0.1-1.9-0.5-2.5
		c-1.4-1.5-2.9-3-5.3-3.1C17.5,22.4,14.4,25.1,14.4,28.3z M24.2,26.6c0-0.3,0.3-0.6,0.7-0.5c0.3,0,0.5,0.2,0.5,0.5V30
		c0,0.3-0.3,0.6-0.7,0.5c-0.3,0-0.5-0.2-0.5-0.5V26.6z M17.5,28.3c0-0.5,0.4-0.9,0.9-0.9h1.9c0.5,0,0.9,0.4,0.9,0.9
		c0,0.5-0.4,0.9-0.9,0.9h-1.9C17.9,29.2,17.5,28.8,17.5,28.3z"/>
	<path class="st1" d="M5.9,22.5c-2.4,0.1-3.9,1.6-5.3,3.1c-0.6,0.7-0.5,1.1-0.5,2.5c0,1.9,0,2.1,0.5,2.9c1.1,1.9,3.1,3,5.3,3.1
		c3.6,0.3,6.7-2.6,6.7-5.8S9.5,22.4,5.9,22.5z M2.8,30c0,0.3-0.3,0.6-0.7,0.5c-0.3,0-0.5-0.2-0.5-0.5v-3.4c0-0.3,0.3-0.6,0.7-0.5
		c0.3,0,0.5,0.2,0.5,0.5V30z M8.6,29.2H6.7c-0.5,0-0.9-0.4-0.9-0.9c0-0.5,0.4-0.9,0.9-0.9h1.9c0.5,0,0.9,0.4,0.9,0.9
		C9.5,28.8,9.1,29.2,8.6,29.2z"/>
	<path class="st1" d="M6.5,48.7C6.6,49.4,7.1,50,7.9,50h1.6c0.8-0.1,1.4-0.7,1.4-1.5V34c-1.3,0.9-2.9,1.3-4.4,1.2L6.5,48.7z"/>
</g>
</svg>
