<?xml version="1.0" encoding="utf-8"?>
<!-- Generator: Adobe Illustrator 25.2.1, SVG Export Plug-In . SVG Version: 6.00 Build 0)  -->
<svg version="1.1" id="레이어_1" xmlns="http://www.w3.org/2000/svg" xmlns:xlink="http://www.w3.org/1999/xlink" x="0px"
	 y="0px" viewBox="0 0 36 54" style="enable-background:new 0 0 36 54;" xml:space="preserve">
<style type="text/css">
	.st0{fill:none;}
	.st1{fill:#F5F5F7;}
</style>
<path class="st0" d="M0,0h36v54H0V0z"/>
<path class="st1" d="M8.5,41v7.7c0,0.7,0.6,1.2,1.3,1.3h1.4c0.8-0.1,1.3-0.8,1.3-1.5V40c-1.3,0.5-2.6,0.8-4,0.8L8.5,41z M12.2,27
	c-1.6,0-3.2,0.4-4.5,1.3C6.4,29,5.3,30,4.4,31.1c0.8,0.2,1.5,0.5,2.1,1c0.7,0.5,1.3,1.1,1.7,1.8c0.6,0.9,1.1,1.9,1.2,3
	c0.1,0.6,0.1,1.2,0,1.8c0,0.2-0.1,0.5-0.2,0.7c1.2-0.1,2.3-0.4,3.4-0.8l0.3-0.2c0.9-0.5,1.7-1.2,2.4-1.9l0.1-0.1
	c0.9-0.9,1.5-2.1,1.6-3.4c0.1-1.4-0.3-2.8-1.1-4C14.3,27.2,12.9,27,12.2,27L12.2,27z M14.5,31.2l-2.2,1.6c-0.4,0.3-0.9,0.2-1.2-0.2
	v0c-0.3-0.4-0.2-1,0.2-1.3l2.1-1.6c0.4-0.3,0.9-0.2,1.2,0.2C14.9,30.4,14.9,30.9,14.5,31.2z M8.6,37.2c-0.2-1.1-0.7-2.1-1.3-3
	c-0.4-0.6-0.8-1.1-1.4-1.5c-0.5-0.3-1-0.6-1.5-0.6c-0.4-0.1-0.9,0-1.3,0.2c-1,0.5-1.8,1.3-2.2,2.2c-0.2,0.5-0.3,1-0.4,1.5
	c0,0.4,0,0.8,0.1,1.2c0.1,0.2,0.1,0.4,0.2,0.5c0.2,0.4,0.4,0.8,0.7,1.2c0.3,0.5,0.7,0.9,1.2,1.3c0.8,0.6,1.8,0.9,2.8,0.8
	c0.6,0,1.1-0.2,1.6-0.4c0.5-0.2,0.9-0.6,1.1-1C8.6,38.9,8.8,38.1,8.6,37.2L8.6,37.2z M3.9,39.4c-0.7-0.2-1.3-0.6-1.7-1.3
	c-0.4-0.6-0.6-1.3-0.5-2c0.1-0.5,0.7-0.5,1,0l1.6,2.3C4.6,38.9,4.4,39.5,3.9,39.4L3.9,39.4z M27.5,41v-0.2c-1.4,0-2.7-0.2-4-0.8v8.5
	c0,0.8,0.6,1.4,1.3,1.5h1.4c0.7-0.1,1.2-0.6,1.2-1.3L27.5,41z M26.5,38.8c-0.1-0.6-0.1-1.2,0-1.8c0.2-1.1,0.6-2.1,1.2-3
	c0.4-0.7,1.1-1.4,1.8-1.9c0.6-0.5,1.4-0.8,2.1-1c-0.9-1.2-2.1-2.1-3.4-2.9c-1.3-0.9-2.9-1.3-4.5-1.3c-0.7,0-2,0.2-3.6,2.1
	c-0.8,1.2-1.2,2.6-1.1,4c0.1,1.3,0.7,2.5,1.6,3.4l0.1,0.1c0.7,0.7,1.5,1.3,2.4,1.9l0.3,0.2c1.1,0.4,2.2,0.7,3.4,0.8
	C26.6,39.2,26.6,39,26.5,38.8L26.5,38.8z M24.9,32.6c-0.3,0.4-0.8,0.5-1.2,0.2c0,0,0,0,0,0l-2.2-1.6c-0.4-0.3-0.5-0.9-0.2-1.2
	c0.3-0.4,0.8-0.5,1.2-0.3l2.1,1.6C25.1,31.6,25.2,32.1,24.9,32.6L24.9,32.6z M35.1,34.5c-0.4-1-1.2-1.8-2.2-2.2
	c-0.4-0.2-0.9-0.2-1.3-0.2c-0.6,0.1-1.1,0.3-1.5,0.6c-0.5,0.4-1,0.9-1.4,1.5c-0.7,0.9-1.2,1.9-1.4,3c-0.2,0.8,0,1.6,0.4,2.3
	c0.3,0.5,0.7,0.8,1.1,1c0.5,0.2,1.1,0.4,1.6,0.4c1,0.1,2-0.2,2.8-0.8c0.5-0.4,0.9-0.8,1.2-1.3c0.3-0.4,0.5-0.8,0.7-1.2
	c0.1-0.2,0.1-0.4,0.2-0.5c0.1-0.4,0.2-0.8,0.1-1.2C35.5,35.5,35.3,35,35.1,34.5z M33.8,38.2c-0.4,0.6-1,1.1-1.8,1.3
	c-0.4,0-0.6-0.5-0.3-1l1.6-2.3c0.3-0.5,0.8-0.5,1,0C34.4,36.9,34.2,37.7,33.8,38.2z"/>
</svg>
