<?xml version="1.0" encoding="utf-8"?>
<!-- Generator: Adobe Illustrator 25.2.1, SVG Export Plug-In . SVG Version: 6.00 Build 0)  -->
<svg version="1.1" id="레이어_1" xmlns="http://www.w3.org/2000/svg" xmlns:xlink="http://www.w3.org/1999/xlink" x="0px"
	 y="0px" viewBox="0 0 28 54" style="enable-background:new 0 0 28 54;" xml:space="preserve">
<style type="text/css">
	.st0{fill:#F5F5F7;}
</style>
<path class="st0" d="M22,22H6c-3.3,0-6,2.7-6,6v16c0,3.3,2.7,6,6,6h16c3.3,0,6-2.7,6-6V28C28,24.7,25.3,22,22,22z M20,41
	c-0.1,0.3-0.2,0.6-0.4,0.8c-0.2,0.3-0.4,0.5-0.7,0.6c-0.3,0.2-0.6,0.3-0.9,0.3c-0.5,0.1-0.9,0.1-1.4,0.1c-0.3-0.1-0.7-0.2-0.9-0.4
	c-0.4-0.3-0.6-0.7-0.7-1.2c-0.1-0.6,0.1-1.1,0.6-1.5c0.2-0.2,0.5-0.4,0.9-0.5c0.5-0.2,1-0.3,1.4-0.3l0.5-0.1c0.2,0,0.4-0.1,0.6-0.3
	c0.1-0.2,0.2-0.4,0.2-0.6v-5.3c0-0.4-0.2-0.5-0.6-0.4c-0.3,0.1-6.8,1.3-6.8,1.3c-0.4,0.1-0.5,0.2-0.5,0.6v7.8c0,0.3,0,0.6-0.1,0.9
	c-0.1,0.3-0.2,0.6-0.4,0.8c-0.2,0.3-0.4,0.5-0.7,0.6c-0.3,0.2-0.6,0.3-0.9,0.3c-0.5,0.1-0.9,0.1-1.4,0.1C7.3,44.4,7,44.2,6.7,44
	c-0.4-0.3-0.6-0.7-0.6-1.2c-0.1-0.6,0.1-1.1,0.5-1.5c0.2-0.2,0.5-0.4,0.8-0.5c0.5-0.2,1-0.3,1.4-0.3l0.5-0.1c0.2,0,0.4-0.1,0.6-0.3
	c0.1-0.2,0.2-0.4,0.2-0.6v-9c0-0.1,0-0.2,0-0.2c0-0.2,0.1-0.4,0.3-0.5c0.1-0.1,0.3-0.2,0.5-0.2l0,0l7.8-1.5c0.1,0,0.6-0.1,0.7-0.1
	c0.3-0.1,0.6,0.2,0.7,0.5c0,0.1,0,0.1,0,0.2v11.4C20,40.4,20,40.7,20,41z"/>
</svg>
