<?xml version="1.0" encoding="utf-8"?>
<!-- Generator: Adobe Illustrator 25.2.1, SVG Export Plug-In . SVG Version: 6.00 Build 0)  -->
<svg version="1.1" id="레이어_1" xmlns="http://www.w3.org/2000/svg" xmlns:xlink="http://www.w3.org/1999/xlink" x="0px"
	 y="0px" viewBox="0 0 17 54" style="enable-background:new 0 0 17 54;" xml:space="preserve">
<style type="text/css">
	.st0{fill:none;}
	.st1{fill:#F5F5F7;}
</style>
<rect class="st0" width="17" height="54"/>
<path class="st1" d="M12.3,34.7c0,0.1,0.1,0.2,0.1,0.4c0.1,0.1,0.1,0.3,0.2,0.4c0.1,0.3,0.3,0.5,0.5,0.8c0.2,0.3,0.4,0.6,0.6,0.8
	l0.3,0.5c0.1,0.2,0.2,0.3,0.3,0.4c0.4,0.6,0.7,1.2,0.9,1.9c0.2,0.7,0.3,1.4,0.3,2.1c0,3.9-3.2,7-7.1,7c-3.9,0-7-3.2-7-7
	c0-0.7,0.1-1.4,0.3-2.1C2,39.2,2.3,38.6,2.7,38L3,37.5l0.3-0.5c0.2-0.3,0.4-0.6,0.6-0.8c0.2-0.3,0.3-0.5,0.5-0.8L4.5,35l0.2-0.4
	c-4,2.1-5.6,7.1-3.5,11.1s7.1,5.6,11.1,3.5c2.7-1.4,4.4-4.2,4.4-7.3C16.8,38.9,15.1,36.1,12.3,34.7L12.3,34.7z"/>
<path class="st1" d="M13.6,38.5c-0.3-0.4-0.6-0.8-0.9-1.3c-0.3-0.4-0.6-0.9-0.8-1.3c-0.2-0.4-0.3-0.7-0.5-1.1
	c-0.1-0.5-0.2-1-0.2-1.5c0-0.6,0-2.1,0-3.9s0-3.6,0-4.9l0,0c0,0,0-1.8,0-3.6s-0.1-3.7-0.1-3.8c-1.7-0.4-3.5-0.4-5.2,0
	c-0.1,1.3-0.2,2.5-0.1,3.8c0,1.8,0,3.6,0,3.6l0,0c0,1.2,0,3.2,0,4.9s0,3.3,0,3.9c0,0.5,0,1-0.2,1.5c-0.1,0.4-0.3,0.8-0.5,1.1
	c-0.2,0.5-0.5,0.9-0.8,1.3c-0.3,0.5-0.6,0.9-0.9,1.3c-0.3,0.5-0.6,1.1-0.8,1.6c-0.2,0.6-0.4,1.2-0.4,1.9c0,3.4,2.8,6.2,6.2,6.2
	c3.4,0,6.2-2.8,6.2-6.2c0,0,0,0,0,0c0-0.6-0.1-1.3-0.3-1.9C14.3,39.5,14,39,13.6,38.5z M8.5,46.2c-2.3,0-4.2-1.9-4.3-4.2
	c0-1.5,0.8-2.9,2.1-3.7v3.1c0,0.2,0,0.3,0,0.5c0,0.2,0,0.3,0.1,0.5c0,0.2,0.1,0.3,0.2,0.5c0.1,0.2,0.1,0.3,0.2,0.4
	c0.2,0.3,0.5,0.5,0.8,0.6c0.3,0.1,0.6,0.2,0.9,0.2c0.4,0,0.8-0.1,1.2-0.4c0.4-0.2,0.6-0.6,0.8-1c0.2-0.4,0.2-0.8,0.1-1.2
	c-0.1-0.4-0.3-0.8-0.6-1.1c-0.2-0.2-0.4-0.3-0.7-0.4c-0.2-0.1-0.5-0.2-0.7-0.2c-0.2,0-0.5,0.1-0.7,0.2c-0.2,0.1-0.5,0.2-0.6,0.4l0,0
	V38c0.2-0.1,0.4-0.1,0.6-0.2c0.2,0,0.4-0.1,0.7-0.1c2.3,0,4.2,1.9,4.2,4.2S10.9,46.3,8.5,46.2L8.5,46.2z M7.3,42
	c0-0.7,0.6-1.3,1.3-1.3c0.3,0,0.7,0.1,0.9,0.4c0.2,0.2,0.4,0.6,0.4,0.9c0,0.3-0.1,0.7-0.4,0.9c-0.2,0.2-0.6,0.4-0.9,0.4
	C7.8,43.3,7.3,42.7,7.3,42z"/>
</svg>
